<svg version="1.2" xmlns="http://www.w3.org/2000/svg" viewBox="0 0 25 27" width="25" height="27"><style>.a{fill:#fff}</style><path class="a" d="m24.8 10.8v14.6c0 0.9-0.7 1.6-1.5 1.6h-21.7c-0.9 0-1.6-0.7-1.6-1.6v-14.6c0-0.9 0.7-1.6 1.6-1.6h2.7v2.9c-0.4 0.4-0.6 0.9-0.6 1.4 0 1.1 0.9 2 1.9 2 1.1 0 2-0.9 2-2 0-0.5-0.2-1-0.6-1.4v-2.9h11.1v2.8c-0.3 0.4-0.6 0.9-0.6 1.5 0 1.1 0.9 2 1.9 2 1.1 0 2-0.9 2-2 0-0.5-0.2-1-0.5-1.3v-3h2.4c0.8 0 1.5 0.7 1.5 1.6zm-5.3 3.5c-0.4 0-0.8-0.4-0.8-0.8v-5.7c0-3.4-2.7-6.2-6.1-6.2-3.4 0-6.2 2.8-6.2 6.2v5.7c0 0.4-0.3 0.8-0.8 0.8-0.4 0-0.8-0.4-0.8-0.8v-5.7c0-4.3 3.5-7.8 7.8-7.8 4.2 0 7.7 3.5 7.7 7.8v5.7c0 0.4-0.3 0.8-0.8 0.8z"/></svg>