<svg version="1.2" xmlns="http://www.w3.org/2000/svg" viewBox="0 0 28 28" width="28" height="28"><style>.a{fill:#fff}</style><path fill-rule="evenodd" class="a" d="m28 7.7v12.6c0 4.2-3.4 7.7-7.6 7.7h-12.3c-4.2 0-7.6-3.5-7.6-7.7v-12.6c0-4.2 3.4-7.7 7.6-7.7h12.3c4.2 0 7.6 3.5 7.6 7.7zm-2.4 12.6v-12.6c0-2.9-2.3-5.2-5.2-5.2h-12.3c-2.8 0-5.1 2.3-5.1 5.2v12.6c0 2.9 2.3 5.2 5.1 5.2h12.3c2.9 0 5.2-2.3 5.2-5.2zm-4.3-6.3c0 4-3.1 7.2-7 7.2-3.9 0-7.1-3.2-7.1-7.2 0-4 3.2-7.2 7.1-7.2 3.9 0 7 3.2 7 7.2zm-2.4 0c0-2.6-2.1-4.7-4.6-4.7-2.6 0-4.7 2.1-4.7 4.7 0 2.6 2.1 4.7 4.7 4.7 2.5 0 4.6-2.1 4.6-4.7zm4-8.8c0.3 0.4 0.5 0.8 0.5 1.3 0 0.5-0.2 1-0.5 1.3-0.3 0.3-0.8 0.5-1.3 0.5-0.4 0-0.9-0.2-1.2-0.5-0.4-0.3-0.6-0.8-0.6-1.3 0-0.5 0.2-0.9 0.6-1.3 0.3-0.3 0.8-0.5 1.2-0.5 0.5 0 1 0.2 1.3 0.5z"/></svg>