<svg version="1.2" xmlns="http://www.w3.org/2000/svg" viewBox="0 0 27 26" width="27" height="26"><style>.a{fill:#fff}</style><path fill-rule="evenodd" class="a" d="m26.2 24.8c-0.3 0.3-0.7 0.5-1.1 0.5-0.5 0-0.9-0.2-1.2-0.5l-8-7.6c-1.6 1.1-3.6 1.8-5.7 1.8-5.5 0-10-4.3-10-9.5 0-5.2 4.5-9.5 10-9.5 5.5 0 9.9 4.3 9.9 9.5 0 2-0.7 3.9-1.8 5.5l7.9 7.6c0.7 0.6 0.7 1.6 0 2.2zm-10.6-11.6l-0.7 0.8-0.9 0.7c-1.1 0.7-2.5 1.1-3.8 1.1-3.7 0-6.6-2.8-6.6-6.3 0-3.5 2.9-6.3 6.6-6.3 3.6 0 6.6 2.8 6.6 6.3 0 1.3-0.4 2.6-1.2 3.7z"/></svg>