<svg version="1.2" xmlns="http://www.w3.org/2000/svg" viewBox="0 0 26 22" width="26" height="22"><style>.a{fill:#fff}</style><path class="a" d="m22.5 4.1q1.5-0.2 2.9-0.8c-0.7 1.1-1.6 2-2.6 2.7l0.1 0.7c0 7-5.2 15-14.5 15-2.9 0-5.6-0.8-7.8-2.3q0.6 0 1.2 0c2.4 0 4.6-0.8 6.3-2.2-2.2-0.1-4.1-1.6-4.8-3.7q0.5 0.1 1 0.1 0.7 0 1.3-0.2c-2.3-0.5-4-2.6-4-5.1v-0.1c0.6 0.4 1.4 0.6 2.3 0.6-1.4-0.9-2.3-2.5-2.3-4.3 0-1 0.3-1.9 0.7-2.7 2.5 3.2 6.3 5.3 10.5 5.5q-0.1-0.6-0.1-1.2c0-2.9 2.2-5.3 5.1-5.3 1.4 0 2.7 0.7 3.7 1.7q1.7-0.4 3.2-1.3c-0.4 1.3-1.2 2.3-2.2 2.9z"/></svg>